<svg xmlns="http://www.w3.org/2000/svg" width="18" height="18" viewBox="0 0 18 18" fill="none">
<path fill-rule="evenodd" clip-rule="evenodd" d="M8.78283 0.666748C13.2578 0.666748 16.8978 4.30675 16.8978 8.78175C16.8978 10.893 16.0876 12.8186 14.7617 14.2638L17.3707 16.8673C17.6148 17.1115 17.6157 17.5065 17.3715 17.7507C17.2498 17.874 17.089 17.9348 16.929 17.9348C16.7698 17.9348 16.6098 17.874 16.4873 17.7523L13.8469 15.1193C12.4579 16.2316 10.6967 16.8976 8.78283 16.8976C4.30783 16.8976 0.666992 13.2567 0.666992 8.78175C0.666992 4.30675 4.30783 0.666748 8.78283 0.666748ZM8.78283 1.91675C4.99699 1.91675 1.91699 4.99591 1.91699 8.78175C1.91699 12.5676 4.99699 15.6476 8.78283 15.6476C12.5678 15.6476 15.6478 12.5676 15.6478 8.78175C15.6478 4.99591 12.5678 1.91675 8.78283 1.91675Z" fill="#73748A"/>
</svg>